<?xml version="1.0" encoding="iso-8859-1"?>
<!-- Generator: Adobe Illustrator 19.0.0, SVG Export Plug-In . SVG Version: 6.00 Build 0)  -->
<svg version="1.1" id="Capa_1" xmlns="http://www.w3.org/2000/svg" xmlns:xlink="http://www.w3.org/1999/xlink" x="0px" y="0px"
	 viewBox="0 0 461.35 461.35" style="enable-background:new 0 0 461.35 461.35;" xml:space="preserve">
<g>
    <circle r="115" cx="160" cy="210" opacity="0.3"></circle>
    <circle r="35" cx="373" cy="312" opacity="0.3"></circle>
	<path d="M269.116,275.743c6.28-10.533,10.955-21.782,13.952-33.568H295.5c12.958,0,23.5-10.542,23.5-23.5v-16
		c0-12.958-10.542-23.5-23.5-23.5h-12.432c-2.997-11.786-7.672-23.035-13.952-33.568l8.825-8.825
		c9.162-9.162,9.162-24.071-0.001-33.234l-11.313-11.313c-4.438-4.438-10.34-6.883-16.617-6.883s-12.179,2.445-16.617,6.883
		l-8.824,8.825c-10.533-6.28-21.782-10.956-33.568-13.952V74.675c0-12.958-10.542-23.5-23.5-23.5h-16
		c-12.958,0-23.5,10.542-23.5,23.5v12.432c-11.786,2.997-23.035,7.672-33.567,13.952l-8.825-8.825
		c-4.438-4.438-10.34-6.883-16.617-6.883s-12.179,2.445-16.617,6.883L41.06,103.548c-9.162,9.163-9.162,24.072,0,33.234l8.825,8.825
		c-6.28,10.533-10.955,21.782-13.952,33.568H23.5c-12.958,0-23.5,10.542-23.5,23.5v16c0,12.958,10.542,23.5,23.5,23.5h12.433
		c2.997,11.786,7.672,23.035,13.952,33.568l-8.825,8.825c-9.162,9.163-9.162,24.071,0,33.234l11.313,11.314
		c9.164,9.163,24.071,9.162,33.235,0l8.824-8.824c10.532,6.28,21.781,10.955,33.567,13.952v12.432c0,12.958,10.542,23.5,23.5,23.5
		h16c12.958,0,23.5-10.542,23.5-23.5v-12.432c11.786-2.997,23.035-7.672,33.568-13.952l8.824,8.825
		c9.163,9.163,24.072,9.164,33.233,0l11.315-11.314c9.162-9.163,9.162-24.071,0-33.234L269.116,275.743z M267.335,307.195
		l-11.315,11.314c-3.313,3.313-8.707,3.313-12.02,0l-13.054-13.054c-2.523-2.521-6.471-2.919-9.444-0.95
		c-12.128,8.031-25.415,13.552-39.494,16.41c-3.495,0.709-6.008,3.783-6.008,7.35v18.41c0,4.687-3.813,8.5-8.5,8.5h-16
		c-4.687,0-8.5-3.813-8.5-8.5v-18.41c0-3.567-2.513-6.641-6.008-7.35c-14.079-2.858-27.366-8.379-39.493-16.41
		c-1.265-0.838-2.705-1.247-4.138-1.247c-1.937,0-3.857,0.748-5.307,2.197l-13.053,13.053c-3.316,3.314-8.709,3.314-12.021,0
		l-11.313-11.314c-3.314-3.314-3.314-8.707,0-12.021l13.054-13.054c2.521-2.522,2.919-6.471,0.949-9.444
		c-8.03-12.127-13.552-25.415-16.41-39.493c-0.709-3.496-3.782-6.008-7.35-6.008H23.5c-4.687,0-8.5-3.813-8.5-8.5v-16
		c0-4.687,3.813-8.5,8.5-8.5h18.41c3.567,0,6.641-2.512,7.35-6.008c2.858-14.079,8.38-27.366,16.41-39.494
		c1.97-2.973,1.572-6.922-0.949-9.444l-13.054-13.054c-3.314-3.314-3.314-8.707,0-12.021l11.313-11.313
		c1.605-1.605,3.739-2.49,6.01-2.49s4.405,0.884,6.011,2.49l13.054,13.054c2.522,2.521,6.473,2.92,9.444,0.95
		c12.127-8.03,25.414-13.551,39.493-16.41c3.495-0.709,6.008-3.783,6.008-7.35v-18.41c0-4.687,3.813-8.5,8.5-8.5h16
		c4.687,0,8.5,3.813,8.5,8.5v18.41c0,3.567,2.513,6.641,6.008,7.35c14.079,2.858,27.366,8.379,39.494,16.41
		c2.974,1.969,6.923,1.571,9.444-0.95L244,102.841c1.605-1.605,3.739-2.49,6.01-2.49s4.404,0.884,6.011,2.49l11.313,11.313
		c3.314,3.314,3.314,8.707,0,12.021l-13.054,13.054c-2.521,2.522-2.919,6.471-0.949,9.444c8.03,12.128,13.552,25.416,16.409,39.494
		c0.71,3.496,3.783,6.008,7.351,6.008H295.5c4.687,0,8.5,3.813,8.5,8.5v16c0,4.687-3.813,8.5-8.5,8.5h-18.409
		c-3.567,0-6.641,2.512-7.351,6.008c-2.857,14.079-8.379,27.366-16.409,39.493c-1.97,2.974-1.572,6.922,0.949,9.444l13.054,13.054
		C270.648,298.488,270.648,303.881,267.335,307.195z"/>
	<path d="M181.423,133.194c5.051,1.426,9.985,3.363,14.667,5.756c1.093,0.559,2.259,0.824,3.408,0.824
		c2.727,0,5.357-1.493,6.684-4.087c1.886-3.688,0.425-8.207-3.264-10.092c-5.56-2.842-11.42-5.143-17.419-6.836
		c-3.987-1.125-8.129,1.193-9.256,5.18C175.117,127.924,177.437,132.068,181.423,133.194z"/>
	<path d="M71.596,202.054c0.458,0.084,0.913,0.125,1.363,0.125c3.549,0,6.704-2.531,7.368-6.146
		c1.199-6.529,3.213-12.898,5.984-18.932c1.73-3.764,0.081-8.217-3.683-9.946c-3.763-1.729-8.218-0.08-9.946,3.683
		c-3.293,7.166-5.685,14.731-7.109,22.485C64.825,197.397,67.521,201.306,71.596,202.054z"/>
	<path d="M144.85,289.846c-32.604-5.991-58.533-31.922-64.521-64.526c-0.749-4.074-4.664-6.771-8.731-6.021
		c-4.074,0.748-6.771,4.657-6.022,8.731c7.106,38.689,37.875,69.46,76.564,76.569c0.458,0.084,0.914,0.125,1.364,0.125
		c3.549,0,6.703-2.53,7.368-6.146C151.619,294.504,148.924,290.595,144.85,289.846z"/>
	<path d="M228.937,145.109c-2.846-3.012-7.593-3.147-10.603-0.302c-3.011,2.844-3.146,7.591-0.302,10.602
		C232.198,170.407,240,190.034,240,210.675c0,7.462-1.02,14.851-3.029,21.961c-1.127,3.986,1.19,8.131,5.177,9.258
		c0.682,0.193,1.368,0.285,2.044,0.285c3.271,0,6.279-2.158,7.213-5.461c2.386-8.438,3.596-17.2,3.596-26.042
		C255,186.188,245.744,162.903,228.937,145.109z"/>
	<path d="M449.604,330.323l-3.912-2.258c0.869-4.474,1.308-8.958,1.308-13.39s-0.438-8.917-1.308-13.39l3.912-2.258
		c11.222-6.479,15.08-20.88,8.602-32.102c-6.48-11.222-20.88-15.082-32.102-8.601l-3.898,2.25
		c-6.809-5.87-14.683-10.405-23.206-13.364v-4.535c0-12.958-10.542-23.5-23.5-23.5s-23.5,10.542-23.5,23.5v4.535
		c-8.523,2.959-16.397,7.494-23.206,13.364l-3.897-2.25c-5.436-3.139-11.769-3.973-17.832-2.348
		c-6.063,1.625-11.132,5.513-14.27,10.949c-6.479,11.222-2.62,25.622,8.602,32.102l3.911,2.258
		c-0.869,4.476-1.308,8.959-1.308,13.39s0.438,8.915,1.308,13.39l-3.911,2.258c-11.222,6.479-15.08,20.879-8.602,32.102
		c6.479,11.223,20.88,15.079,32.102,8.602l3.897-2.25c6.809,5.87,14.683,10.404,23.206,13.364v4.535c0,12.958,10.542,23.5,23.5,23.5
		s23.5-10.542,23.5-23.5v-4.535c8.523-2.959,16.397-7.494,23.206-13.364l3.898,2.25c11.22,6.478,25.622,2.62,32.102-8.602
		C464.685,351.202,460.826,336.802,449.604,330.323z M445.216,354.924c-2.345,4.059-7.554,5.453-11.611,3.112l-8.711-5.029
		c-2.961-1.71-6.705-1.199-9.101,1.24c-7.16,7.29-16.208,12.5-26.166,15.068c-3.313,0.854-5.627,3.841-5.627,7.262v10.098
		c0,4.687-3.813,8.5-8.5,8.5s-8.5-3.813-8.5-8.5v-10.098c0-3.421-2.314-6.408-5.627-7.262c-9.958-2.568-19.006-7.778-26.166-15.068
		c-1.449-1.475-3.39-2.245-5.354-2.245c-1.283,0-2.576,0.329-3.747,1.005l-8.71,5.029c-4.059,2.345-9.269,0.946-11.611-3.111
		c-2.343-4.06-0.947-9.269,3.111-11.612l8.734-5.043c2.96-1.709,4.391-5.203,3.478-8.497c-1.398-5.052-2.108-10.132-2.108-15.099
		s0.71-10.046,2.108-15.099c0.913-3.294-0.518-6.788-3.478-8.497l-8.734-5.043c-4.059-2.344-5.454-7.553-3.111-11.612
		c1.136-1.966,2.968-3.373,5.161-3.96c2.192-0.588,4.483-0.287,6.45,0.849l8.71,5.029c2.963,1.711,6.705,1.199,9.101-1.24
		c7.16-7.29,16.208-12.5,26.166-15.068c3.313-0.854,5.627-3.841,5.627-7.262v-10.098c0-4.687,3.813-8.5,8.5-8.5s8.5,3.813,8.5,8.5
		v10.098c0,3.421,2.314,6.408,5.627,7.262c9.958,2.568,19.006,7.778,26.166,15.068c2.396,2.439,6.139,2.951,9.101,1.24l8.711-5.029
		c4.058-2.343,9.267-0.948,11.611,3.111c2.343,4.059,0.947,9.268-3.111,11.611l-8.735,5.043c-2.96,1.709-4.391,5.204-3.478,8.498
		c1.399,5.048,2.108,10.128,2.108,15.098s-0.709,10.049-2.108,15.098c-0.913,3.294,0.518,6.789,3.478,8.498l8.735,5.043
		C446.163,345.657,447.559,350.866,445.216,354.924z"/>
	<path d="M375.5,283.175c-17.369,0-31.5,14.131-31.5,31.5s14.131,31.5,31.5,31.5s31.5-14.131,31.5-31.5
		S392.869,283.175,375.5,283.175z M375.5,331.175c-9.098,0-16.5-7.402-16.5-16.5s7.402-16.5,16.5-16.5s16.5,7.402,16.5,16.5
		S384.598,331.175,375.5,331.175z"/>
	<path d="M159.5,147.175c-35.014,0-63.5,28.486-63.5,63.5s28.486,63.5,63.5,63.5s63.5-28.486,63.5-63.5
		S194.514,147.175,159.5,147.175z M159.5,259.175c-26.743,0-48.5-21.757-48.5-48.5s21.757-48.5,48.5-48.5s48.5,21.757,48.5,48.5
		S186.243,259.175,159.5,259.175z"/>
</g>
</svg>
